<?xml version="1.0" encoding="utf-8"?>
<!-- Generator: Adobe Illustrator 24.1.3, SVG Export Plug-In . SVG Version: 6.00 Build 0)  -->
<svg version="1.1" id="Calque_1" xmlns="http://www.w3.org/2000/svg" xmlns:xlink="http://www.w3.org/1999/xlink" x="0px" y="0px"
	 viewBox="0 0 100 100" style="enable-background:new 0 0 100 100;" xml:space="preserve">
<style type="text/css">
	.st0{fill:#FFFFFF;}
	.st1{fill:#B376D3;}
	.st2{fill:#549CDD;}
	.st3{fill:#FFFFFF;stroke:#FFFFFF;stroke-width:3;stroke-miterlimit:10;}
</style>
<path class="st1" d="M3,60.09l12.27-4C9.85,51.31,6.5,44.74,6.5,37.5C6.5,22.86,20.16,11,37,11s30.5,11.86,30.5,26.5
	C67.5,52.14,53.84,64,37,64c-5.55,0-10.74-1.29-15.23-3.54L3,60.09z"/>
<path class="st2" d="M92.5,79.16l-12.27-3.92C85.65,70.55,89,64.11,89,57c0-14.36-13.66-26-30.5-26S28,42.64,28,57
	c0,14.36,13.66,26,30.5,26c5.55,0,10.74-1.27,15.23-3.47L92.5,79.16z"/>
<g>
	<path class="st3" d="M59.76,44.51v12.73H72v3.25H59.76v12.84h-3.47V60.49H44.04v-3.25h12.24V44.51H59.76z"/>
</g>
</svg>