<?xml version="1.0" encoding="utf-8"?>
<svg version="1.1" id="Calque_1" xmlns="http://www.w3.org/2000/svg" xmlns:xlink="http://www.w3.org/1999/xlink" x="0px" y="0px"
	 viewBox="0 0 100 100" style="enable-background:new 0 0 100 100;" xml:space="preserve">
<style type="text/css">
	.st0{fill:#B376D3;}
	.st1{fill:#FFFFFF;}
	.st2{fill:#549CDD;}
</style>
<path class="st0" d="M3,60.1l12.3-4c-5.4-4.8-8.8-11.3-8.8-18.6C6.5,22.9,20.2,11,37,11s30.5,11.9,30.5,26.5S53.8,64,37,64
	c-5.5,0-10.7-1.3-15.2-3.5L3,60.1z"/>
<g>
	<path class="st1" d="M16.4,25.8h9c1.5,0,2.7,0.4,3.5,1.1c0.8,0.7,1.2,1.7,1.2,2.8c0,0.9-0.3,1.7-0.9,2.4c-0.4,0.4-0.9,0.8-1.7,1
		c1.1,0.3,1.9,0.7,2.5,1.4c0.5,0.7,0.8,1.5,0.8,2.5c0,0.8-0.2,1.5-0.6,2.2c-0.4,0.6-0.9,1.2-1.5,1.5c-0.4,0.2-1,0.4-1.8,0.5
		c-1.1,0.1-1.8,0.2-2.2,0.2h-8.3V25.8z M21.2,31.9h2.1c0.8,0,1.3-0.1,1.6-0.4c0.3-0.3,0.4-0.6,0.4-1.1c0-0.5-0.1-0.8-0.4-1.1
		c-0.3-0.3-0.8-0.4-1.5-0.4h-2.1V31.9z M21.2,38h2.5c0.8,0,1.4-0.1,1.8-0.4c0.3-0.3,0.5-0.7,0.5-1.2c0-0.5-0.2-0.8-0.5-1.1
		s-0.9-0.4-1.8-0.4h-2.4V38z"/>
	<path class="st1" d="M33.3,25.8h4.8v11.8h7.5v3.8H33.3V25.8z"/>
	<path class="st1" d="M57.4,38.8H52l-0.8,2.6h-4.9l5.9-15.6h5.3l5.9,15.6h-5L57.4,38.8z M56.4,35.4l-1.7-5.6L53,35.4H56.4z"/>
</g>
<path class="st2" d="M92.5,79.2l-12.3-3.9C85.7,70.6,89,64.1,89,57c0-14.4-13.7-26-30.5-26S28,42.6,28,57s13.7,26,30.5,26
	c5.6,0,10.7-1.3,15.2-3.5L92.5,79.2z"/>
<g>
	<path class="st1" d="M35.6,50.1h9c1.5,0,2.7,0.4,3.5,1.1c0.8,0.7,1.2,1.7,1.2,2.8c0,0.9-0.3,1.7-0.9,2.4c-0.4,0.4-0.9,0.8-1.7,1
		c1.1,0.3,1.9,0.7,2.5,1.4c0.5,0.7,0.8,1.5,0.8,2.5c0,0.8-0.2,1.5-0.6,2.2c-0.4,0.6-0.9,1.2-1.5,1.5c-0.4,0.2-1,0.4-1.8,0.5
		c-1.1,0.1-1.8,0.2-2.2,0.2h-8.3V50.1z M40.5,56.2h2.1c0.8,0,1.3-0.1,1.6-0.4c0.3-0.3,0.4-0.6,0.4-1.1c0-0.5-0.1-0.8-0.4-1.1
		c-0.3-0.3-0.8-0.4-1.5-0.4h-2.1V56.2z M40.5,62.3h2.5c0.8,0,1.4-0.1,1.8-0.4c0.3-0.3,0.5-0.7,0.5-1.2c0-0.5-0.2-0.8-0.5-1.1
		s-0.9-0.4-1.8-0.4h-2.4V62.3z"/>
	<path class="st1" d="M52.5,50.1h4.8v11.8h7.5v3.8H52.5V50.1z"/>
	<path class="st1" d="M76.7,63.1h-5.5l-0.8,2.6h-4.9l5.9-15.6h5.3l5.9,15.6h-5L76.7,63.1z M75.7,59.8l-1.7-5.6l-1.7,5.6H75.7z"/>
</g>
</svg>
